<svg xmlns="http://www.w3.org/2000/svg" viewBox="0 0 649.69 370.52"><defs><style>.cls-1{fill:#01e3a1;}.cls-2{fill:#002741;}</style></defs><g id="Layer_2" data-name="Layer 2"><g id="Layer_1-2" data-name="Layer 1"><path class="cls-1" d="M23.85,262.15a15.94,15.94,0,0,1,5.76-3.79,20.33,20.33,0,0,1,7.4-1.31,18.11,18.11,0,0,1,8.43,2,23,23,0,0,1,7,5.71l11.81-10.68a30.5,30.5,0,0,0-12-9.23,40.21,40.21,0,0,0-16.26-3.14,40.27,40.27,0,0,0-14.33,2.48,34.45,34.45,0,0,0-11.43,7A32,32,0,0,0,2.72,262a36.24,36.24,0,0,0,0,27.55,31.9,31.9,0,0,0,7.59,10.82,34.28,34.28,0,0,0,11.43,7,40.27,40.27,0,0,0,14.33,2.48,39.71,39.71,0,0,0,16.26-3.18,31,31,0,0,0,12-9.28L52.47,286.75a22.49,22.49,0,0,1-7,5.81,18.24,18.24,0,0,1-8.43,2,20.33,20.33,0,0,1-7.4-1.31,15.83,15.83,0,0,1-5.76-3.8,17.63,17.63,0,0,1-3.75-5.95,22.39,22.39,0,0,1,0-15.37A17.73,17.73,0,0,1,23.85,262.15Z"/><polygon class="cls-1" points="116.37 267.64 91.17 267.64 91.17 242.99 72.61 242.99 72.61 308.58 91.17 308.58 91.17 283 116.37 283 116.37 308.58 134.92 308.58 134.92 242.99 116.37 242.99 116.37 267.64"/><polygon class="cls-1" points="166.4 282.16 195.54 282.16 195.54 268.38 166.4 268.38 166.4 257.42 199.48 257.42 199.48 242.99 148.13 242.99 148.13 308.58 200.7 308.58 200.7 294.15 166.4 294.15 166.4 282.16"/><polygon class="cls-1" points="271.91 242.99 249.38 280.89 226.37 242.99 211.1 242.99 211.1 308.58 228.15 308.58 228.15 274.76 244.92 302.12 253.17 302.12 270.06 273.78 270.22 308.58 287.27 308.58 287.18 242.99 271.91 242.99"/><path class="cls-1" d="M359.61,251.33a34.51,34.51,0,0,0-11.53-7.12,42.93,42.93,0,0,0-29,0,33.78,33.78,0,0,0-19.17,18,32.71,32.71,0,0,0-2.76,13.49,33.32,33.32,0,0,0,2.76,13.64,33.51,33.51,0,0,0,19.21,18,42.82,42.82,0,0,0,29,0,34.83,34.83,0,0,0,11.57-7.12,32.31,32.31,0,0,0,7.64-10.82A34,34,0,0,0,370,275.69a32.94,32.94,0,0,0-2.77-13.58A33.46,33.46,0,0,0,359.61,251.33Zm-9.7,32.19a18,18,0,0,1-3.75,5.9,16.16,16.16,0,0,1-5.62,3.8,19.25,19.25,0,0,1-14,0,16.55,16.55,0,0,1-5.67-3.8,17,17,0,0,1-3.75-5.9,23.46,23.46,0,0,1,0-15.46,17.09,17.09,0,0,1,3.75-5.91,16.67,16.67,0,0,1,5.67-3.79,19.25,19.25,0,0,1,14,0,16.27,16.27,0,0,1,5.62,3.79,18.18,18.18,0,0,1,3.75,5.91,22.65,22.65,0,0,1,0,15.46Z"/><path class="cls-1" d="M429.88,247a42.91,42.91,0,0,0-19-4h-31v65.59h31a42.77,42.77,0,0,0,19-4,30.88,30.88,0,0,0,12.88-11.38,32.12,32.12,0,0,0,4.64-17.48,31.67,31.67,0,0,0-4.64-17.33A31.06,31.06,0,0,0,429.88,247Zm-3.56,38.37a15.66,15.66,0,0,1-6.52,6.23,21.21,21.21,0,0,1-9.88,2.16H398.39v-36h11.53A21.33,21.33,0,0,1,419.8,260a16,16,0,0,1,6.52,6.14,21.07,21.07,0,0,1,0,19.3Z"/><path class="cls-1" d="M516.26,251.33a34.46,34.46,0,0,0-11.52-7.12,43,43,0,0,0-29.05,0,34.2,34.2,0,0,0-11.52,7.17,33.82,33.82,0,0,0-7.64,10.82,32.71,32.71,0,0,0-2.76,13.49,33.32,33.32,0,0,0,2.76,13.64,33.51,33.51,0,0,0,19.21,18,42.82,42.82,0,0,0,29,0,34.93,34.93,0,0,0,11.57-7.12A32.45,32.45,0,0,0,524,289.42a34,34,0,0,0,2.71-13.73,32.94,32.94,0,0,0-2.76-13.58A33.33,33.33,0,0,0,516.26,251.33Zm-9.69,32.19a18,18,0,0,1-3.75,5.9,16.16,16.16,0,0,1-5.62,3.8,19.25,19.25,0,0,1-14,0,16.55,16.55,0,0,1-5.67-3.8,16.82,16.82,0,0,1-3.75-5.9,23.46,23.46,0,0,1,0-15.46,17,17,0,0,1,3.75-5.91,16.67,16.67,0,0,1,5.67-3.79,19.25,19.25,0,0,1,14,0,16.27,16.27,0,0,1,5.62,3.79,18.18,18.18,0,0,1,3.75,5.91,22.81,22.81,0,0,1,0,15.46Z"/><path class="cls-1" d="M581.15,274.62a31.72,31.72,0,0,0-7.26-3.38q-3.95-1.26-7.92-2.11t-7.26-1.63a18.36,18.36,0,0,1-5.34-2.07,3.91,3.91,0,0,1-2.06-3.51,4.44,4.44,0,0,1,1-2.81,7.4,7.4,0,0,1,3.37-2.16,18.71,18.71,0,0,1,6.18-.84,34.7,34.7,0,0,1,8.9,1.22,39.88,39.88,0,0,1,9.28,3.84l5.62-13.68a37.48,37.48,0,0,0-11-4.36A56.13,56.13,0,0,0,562,241.68q-9.66,0-16.12,2.91a22,22,0,0,0-9.65,7.68A18.73,18.73,0,0,0,533,262.86a17.14,17.14,0,0,0,2,8.71,16.57,16.57,0,0,0,5.29,5.62,30.05,30.05,0,0,0,7.31,3.47,74,74,0,0,0,7.92,2.11c2.59.53,5,1.09,7.21,1.68a20.79,20.79,0,0,1,5.39,2.16,3.86,3.86,0,0,1,2.06,3.42,4.22,4.22,0,0,1-1.08,2.9,6.85,6.85,0,0,1-3.37,1.88,23.49,23.49,0,0,1-6.23.65,38,38,0,0,1-11.48-1.82A43,43,0,0,1,537.91,289l-6.09,13.77a40.45,40.45,0,0,0,12,5.11,59.56,59.56,0,0,0,15.6,2q9.74,0,16.21-2.9a22.2,22.2,0,0,0,9.69-7.73,18.53,18.53,0,0,0,3.24-10.54,16.42,16.42,0,0,0-2.06-8.58A16.64,16.64,0,0,0,581.15,274.62Z"/><polygon class="cls-1" points="615.39 294.15 615.39 282.16 644.53 282.16 644.53 268.38 615.39 268.38 615.39 257.42 648.47 257.42 648.47 242.99 597.12 242.99 597.12 308.58 649.69 308.58 649.69 294.15 615.39 294.15"/><path class="cls-2" d="M120.25,338.23H108v31.86h4.6V358.51h7.49c6.55,0,10.89-4.14,10.89-10.29C131,342.24,126.71,338.23,120.25,338.23Zm-.56,16.49h-7.06V342h7.06c4,0,6.55,2.54,6.55,6.33S123.74,354.72,119.69,354.72Z"/><path class="cls-2" d="M147.8,346.67c-3.49,0-6.2,1.33-7.83,3.7V336.51h-4.39v33.58H140V356.4c0-3.57,2.54-5.94,6.37-5.94s6.37,2.37,6.37,5.94v13.69h4.39V355.62C157.1,350.24,153.35,346.67,147.8,346.67Z"/><path class="cls-2" d="M171.86,346.67a12.68,12.68,0,0,0-8.91,3.1l1.94,2.62a8.1,8.1,0,0,1,5.9-2.23c3.87,0,6.24,2.28,6.24,5.94v1a28.86,28.86,0,0,0-5.94-.65c-5.77,0-9.6,2.84-9.6,7.15,0,4.13,3.14,6.89,7.75,6.89a8.89,8.89,0,0,0,7.83-4.48l.09,4h4.26V355.62C181.42,350.24,177.59,346.67,171.86,346.67Zm-1.37,20.66c-2.8,0-4.39-1.51-4.39-3.83s2.19-4,5.55-4a26.94,26.94,0,0,1,5.38.6C177,364.71,173.67,367.33,170.49,367.33Z"/><path class="cls-2" d="M192,350.54l-.08-3.44h-4.22v23h4.39V357.22c0-3.92,3.19-6.5,8.39-6.5l.31-4.05C196.74,346.67,193.69,348,192,350.54Z"/><path class="cls-2" d="M231,346.67a8.53,8.53,0,0,0-7.7,4.09,8.14,8.14,0,0,0-7.41-4.09,8.24,8.24,0,0,0-7.18,3.57l-.09-3.14h-4.22v23h4.39V356.4c0-3.57,2.24-5.94,5.64-5.94s5.64,2.37,5.64,5.94v13.69h4.39V356.4c0-3.57,2.28-5.94,5.68-5.94s5.64,2.37,5.64,5.94v13.69h4.39V355.62C240.13,350.24,236.47,346.67,231,346.67Z"/><path class="cls-2" d="M254.94,346.67a12.68,12.68,0,0,0-8.91,3.1l1.94,2.62a8.09,8.09,0,0,1,5.89-2.23c3.88,0,6.25,2.28,6.25,5.94v1a29,29,0,0,0-6-.65c-5.76,0-9.59,2.84-9.59,7.15,0,4.13,3.14,6.89,7.74,6.89a8.91,8.91,0,0,0,7.84-4.48l.08,4h4.27V355.62C264.5,350.24,260.66,346.67,254.94,346.67Zm-1.38,20.66c-2.8,0-4.39-1.51-4.39-3.83s2.2-4,5.55-4a27,27,0,0,1,5.39.6C260.06,364.71,256.75,367.33,253.56,367.33Z"/><path class="cls-2" d="M281.46,366.73c-4.57,0-7.58-3.27-7.58-8.14s3-8.13,7.53-8.13a7.56,7.56,0,0,1,5.12,1.81l2.5-3a12.22,12.22,0,0,0-7.66-2.58c-7.23,0-12.05,4.78-12.05,11.92s4.77,11.93,11.92,11.93a12.09,12.09,0,0,0,8.52-3.1l-2.54-3A7.66,7.66,0,0,1,281.46,366.73Z"/><path class="cls-2" d="M303.11,346.67c-6.72,0-11.15,4.82-11.15,12s4.56,11.84,11.32,11.84a11.58,11.58,0,0,0,9.9-5l-3.36-1.81a8.12,8.12,0,0,1-6.58,3.36c-4,0-6.2-2.67-6.63-6.84h17.51a13.15,13.15,0,0,0,.09-1.9C314.21,351.32,309.78,346.67,303.11,346.67Zm-6.5,10.5c.38-4.34,2.71-7,6.5-7s6.19,2.62,6.58,7Z"/><path class="cls-2" d="M335.35,360.83a6,6,0,0,1-12.06,0V347.1H318.9v14.46c0,5.38,3.58,9,9,9a8.58,8.58,0,0,0,7.57-3.75l.09,3.32h4.22v-23h-4.39Z"/><path class="cls-2" d="M352,362.85V350.72h7.57V347.1H352v-6.72h-4.39v6.72H343.7v3.62h3.92v13c0,4,2.66,6.76,6.62,6.76a13.86,13.86,0,0,0,5.69-1V366a11.6,11.6,0,0,1-4.31.78A3.55,3.55,0,0,1,352,362.85Z"/><rect class="cls-2" x="363.97" y="347.1" width="4.39" height="22.99"/><path class="cls-2" d="M366.17,336.81a2.76,2.76,0,1,0,2.71,2.76A2.67,2.67,0,0,0,366.17,336.81Z"/><path class="cls-2" d="M385.62,366.73c-4.56,0-7.57-3.27-7.57-8.14s3-8.13,7.53-8.13a7.56,7.56,0,0,1,5.12,1.81l2.5-3a12.22,12.22,0,0,0-7.66-2.58c-7.23,0-12.06,4.78-12.06,11.92s4.78,11.93,11.93,11.93a12.09,12.09,0,0,0,8.52-3.1l-2.54-3A7.68,7.68,0,0,1,385.62,366.73Z"/><path class="cls-2" d="M406.71,346.67a12.7,12.7,0,0,0-8.91,3.1l1.94,2.62a8.1,8.1,0,0,1,5.9-2.23c3.87,0,6.24,2.28,6.24,5.94v1a28.86,28.86,0,0,0-5.94-.65c-5.77,0-9.6,2.84-9.6,7.15,0,4.13,3.14,6.89,7.75,6.89a8.89,8.89,0,0,0,7.83-4.48l.09,4h4.26V355.62C416.27,350.24,412.44,346.67,406.71,346.67Zm-1.37,20.66c-2.8,0-4.39-1.51-4.39-3.83s2.19-4,5.55-4a26.94,26.94,0,0,1,5.38.6C411.84,364.71,408.52,367.33,405.34,367.33Z"/><rect class="cls-2" x="422.6" y="336.51" width="4.39" height="33.58"/><path class="cls-2" d="M443,356.91l-2.2-.6c-2.23-.64-3.87-1.46-3.87-3.18s1.76-3,4.35-3a11.14,11.14,0,0,1,6,1.63l1.9-2.93a14.44,14.44,0,0,0-8.22-2.19c-5.13,0-8.57,2.84-8.57,7.1,0,3.57,2.58,5,6.33,6l2.19.6c2.54.73,4.39,1.72,4.39,3.53s-1.81,3.14-4.52,3.14a11.91,11.91,0,0,1-6.63-1.8L432.41,368c1.94,1.68,4.91,2.54,8.31,2.54,5.51,0,9.08-2.76,9.08-6.93C449.8,359.71,446.66,357.9,443,356.91Z"/><path class="cls-2" d="M479.07,338.23H466.85v31.86h4.6V358.51h7.49c6.55,0,10.89-4.14,10.89-10.29C489.83,342.24,485.53,338.23,479.07,338.23Zm-.56,16.49h-7.06V342h7.06c4,0,6.55,2.54,6.55,6.33S482.56,354.72,478.51,354.72Z"/><polygon class="cls-2" points="499.82 338.23 495.21 338.23 495.21 370.09 514.37 370.09 514.37 366.3 499.82 366.3 499.82 338.23"/><path class="cls-2" d="M542.09,361.39a11.54,11.54,0,0,1-10,5.34c-7,0-11.75-5.08-11.75-12.66s4.69-12.48,11.79-12.48a11.65,11.65,0,0,1,9.26,4.3l2.88-2.92A15.81,15.81,0,0,0,532,337.8c-9.85,0-16.44,6.5-16.44,16.27s6.63,16.45,16.49,16.45a15.92,15.92,0,0,0,13.21-6.29Z"/><path class="cls-2" d="M407.52,145.45a12,12,0,0,0,3-5.19C409.55,142,408.56,143.74,407.52,145.45Z"/><path class="cls-2" d="M398.36,30.07h-.81c-12,.41-21.63,9.85-21.73,21.47a1.15,1.15,0,0,0,0,.19l.18,63v22.58A22,22,0,0,0,397.55,159h.72a22.06,22.06,0,0,0,22.28-21.78V114.73l0-4.93.18-29.34.17-28.72C420.93,39.77,410.83,30.07,398.36,30.07Zm12.52,107.15a11.58,11.58,0,0,1-.4,3v0a12,12,0,0,1-3,5.19,12.82,12.82,0,0,1-9.25,3.89,12.39,12.39,0,0,1-12.61-12.12V94.53h25.22Z"/><path class="cls-2" d="M363.24,153.39a70.08,70.08,0,0,1-39.38,12,70.83,70.83,0,0,1,0-141.66A70,70,0,0,1,363.09,35.6a39,39,0,0,1,16.7-17.31A94.59,94.59,0,0,0,257,27.69a94.55,94.55,0,0,0,66.85,161.39,93.25,93.25,0,0,0,56-18.31A38.86,38.86,0,0,1,363.24,153.39Z"/><path class="cls-2" d="M379.82,170.77A94.58,94.58,0,0,1,257,161.38,94.54,94.54,0,0,1,323.86,0a93.21,93.21,0,0,1,55.93,18.29,39,39,0,0,0-16.7,17.31,70,70,0,0,0-39.23-11.89,70.83,70.83,0,0,0,0,141.66,70.08,70.08,0,0,0,39.38-12A38.86,38.86,0,0,0,379.82,170.77Z"/></g></g></svg>