<svg xmlns="http://www.w3.org/2000/svg" viewBox="0 0 191.61 189.08"><defs><style>.cls-1{fill:#002741;}</style></defs><g id="Layer_2" data-name="Layer 2"><g id="Layer_1-2" data-name="Layer 1"><path class="cls-1" d="M178.2,145.45a12,12,0,0,0,3-5.19C180.23,142,179.24,143.74,178.2,145.45Z"/><path class="cls-1" d="M169,30.07h-.81c-12,.41-21.63,9.85-21.74,21.47v.19l.18,63v22.58A22,22,0,0,0,168.23,159H169a22.06,22.06,0,0,0,22.28-21.78V114.73l0-4.93.18-29.34.17-28.72C191.61,39.77,181.5,30.07,169,30.07Zm12.52,107.15a11.58,11.58,0,0,1-.4,3v0a12,12,0,0,1-3,5.19,12.82,12.82,0,0,1-9.25,3.89,12.38,12.38,0,0,1-12.61-12.12V94.53h25.22Z"/><path class="cls-1" d="M133.91,153.39a70,70,0,0,1-39.37,12,70.83,70.83,0,0,1,0-141.66A70,70,0,0,1,133.77,35.6a39,39,0,0,1,16.7-17.31,94.59,94.59,0,0,0-122.78,9.4A94.55,94.55,0,0,0,94.54,189.08a93.25,93.25,0,0,0,56-18.31A38.94,38.94,0,0,1,133.91,153.39Z"/><path class="cls-1" d="M150.5,170.77a94.58,94.58,0,0,1-122.81-9.39A94.54,94.54,0,0,1,94.54,0a93.21,93.21,0,0,1,55.93,18.29,39,39,0,0,0-16.7,17.31A70,70,0,0,0,94.54,23.71a70.83,70.83,0,0,0,0,141.66,70,70,0,0,0,39.37-12A38.94,38.94,0,0,0,150.5,170.77Z"/></g></g></svg>