<svg width="650" height="371" viewBox="0 0 650 371" fill="none" xmlns="http://www.w3.org/2000/svg">
<g clip-path="url(#clip0_69_413)">
<path d="M23.85 262.15C25.4705 260.482 27.4365 259.188 29.61 258.36C31.9738 257.467 34.4833 257.023 37.01 257.05C39.9404 257.025 42.8332 257.711 45.44 259.05C48.1278 260.472 50.507 262.413 52.44 264.76L64.25 254.08C61.0893 250.044 56.9621 246.869 52.25 244.85C47.1066 242.687 41.5691 241.617 35.99 241.71C31.1024 241.66 26.2466 242.501 21.66 244.19C17.4285 245.753 13.545 248.131 10.23 251.19C7.00461 254.234 4.44718 257.915 2.71999 262C-0.906745 270.825 -0.906745 280.725 2.71999 289.55C4.46691 293.647 7.05239 297.333 10.31 300.37C13.6223 303.433 17.5065 305.812 21.74 307.37C26.3266 309.06 31.1824 309.9 36.07 309.85C41.6533 309.945 47.1939 308.862 52.33 306.67C57.0368 304.618 61.1603 301.429 64.33 297.39L52.47 286.75C50.5568 289.143 48.1747 291.12 45.47 292.56C42.8614 293.894 39.9698 294.58 37.04 294.56C34.5133 294.587 32.0038 294.143 29.64 293.25C27.4639 292.422 25.4972 291.125 23.88 289.45C22.2431 287.739 20.9677 285.715 20.13 283.5C18.3164 278.537 18.3164 273.093 20.13 268.13C20.9576 265.908 22.2226 263.875 23.85 262.15Z" fill="#01E3A1"/>
<path d="M116.37 267.64H91.17V242.99H72.61V308.58H91.17V283H116.37V308.58H134.92V242.99H116.37V267.64Z" fill="#01E3A1"/>
<path d="M166.4 282.16H195.54V268.38H166.4V257.42H199.48V242.99H148.13V308.58H200.7V294.15H166.4V282.16Z" fill="#01E3A1"/>
<path d="M271.91 242.99L249.38 280.89L226.37 242.99H211.1V308.58H228.15V274.76L244.92 302.12H253.17L270.06 273.78L270.22 308.58H287.27L287.18 242.99H271.91Z" fill="#01E3A1"/>
<path d="M359.61 251.33C356.275 248.218 352.356 245.798 348.08 244.21C338.706 240.846 328.454 240.846 319.08 244.21C314.844 245.776 310.964 248.176 307.672 251.268C304.379 254.36 301.74 258.08 299.91 262.21C298.043 266.46 297.102 271.058 297.15 275.7C297.1 280.39 298.04 285.038 299.91 289.34C301.731 293.482 304.372 297.212 307.673 300.305C310.975 303.399 314.869 305.792 319.12 307.34C328.492 310.713 338.748 310.713 348.12 307.34C352.407 305.749 356.338 303.33 359.69 300.22C362.957 297.18 365.558 293.496 367.33 289.4C369.159 285.064 370.068 280.396 370 275.69C370.05 271.018 369.106 266.389 367.23 262.11C365.431 258.046 362.841 254.382 359.61 251.33ZM349.91 283.52C349.058 285.713 347.784 287.717 346.16 289.42C344.577 291.07 342.661 292.365 340.54 293.22C336.039 294.977 331.041 294.977 326.54 293.22C324.406 292.361 322.475 291.067 320.87 289.42C319.225 287.734 317.948 285.725 317.12 283.52C315.373 278.515 315.373 273.065 317.12 268.06C317.949 265.852 319.226 263.84 320.87 262.15C322.479 260.509 324.409 259.219 326.54 258.36C331.041 256.603 336.039 256.603 340.54 258.36C342.659 259.215 344.574 260.506 346.16 262.15C347.781 263.859 349.055 265.866 349.91 268.06C351.723 273.054 351.723 278.526 349.91 283.52Z" fill="#01E3A1"/>
<path d="M429.88 247C423.935 244.232 417.436 242.864 410.88 243H379.88V308.59H410.88C417.436 308.731 423.937 307.362 429.88 304.59C435.164 302.092 439.63 298.146 442.76 293.21C445.949 287.948 447.559 281.881 447.4 275.73C447.556 269.627 445.945 263.609 442.76 258.4C439.625 253.463 435.161 249.512 429.88 247ZM426.32 285.37C424.805 288.041 422.537 290.208 419.8 291.6C416.729 293.106 413.339 293.847 409.92 293.76H398.39V257.76H409.92C413.345 257.702 416.734 258.471 419.8 260C422.513 261.384 424.775 263.514 426.32 266.14C427.858 269.124 428.66 272.433 428.66 275.79C428.66 279.147 427.858 282.456 426.32 285.44V285.37Z" fill="#01E3A1"/>
<path d="M516.26 251.33C512.929 248.218 509.013 245.798 504.74 244.21C495.35 240.84 485.08 240.84 475.69 244.21C471.41 245.807 467.493 248.245 464.17 251.38C460.935 254.448 458.339 258.125 456.53 262.2C454.663 266.45 453.722 271.048 453.77 275.69C453.72 280.38 454.66 285.028 456.53 289.33C458.351 293.472 460.992 297.202 464.293 300.295C467.595 303.389 471.489 305.782 475.74 307.33C485.112 310.703 495.368 310.703 504.74 307.33C509.025 305.737 512.956 303.318 516.31 300.21C519.588 297.18 522.206 293.507 524 289.42C525.846 285.081 526.769 280.405 526.71 275.69C526.763 271.019 525.823 266.39 523.95 262.11C522.133 258.038 519.519 254.373 516.26 251.33ZM506.57 283.52C505.718 285.713 504.444 287.717 502.82 289.42C501.237 291.07 499.321 292.365 497.2 293.22C492.699 294.977 487.701 294.977 483.2 293.22C481.066 292.361 479.135 291.067 477.53 289.42C475.881 287.738 474.603 285.728 473.78 283.52C472.033 278.515 472.033 273.065 473.78 268.06C474.607 265.851 475.884 263.839 477.53 262.15C479.139 260.509 481.069 259.219 483.2 258.36C487.701 256.603 492.699 256.603 497.2 258.36C499.319 259.215 501.234 260.506 502.82 262.15C504.441 263.858 505.715 265.866 506.57 268.06C508.37 273.056 508.37 278.524 506.57 283.52Z" fill="#01E3A1"/>
<path d="M581.15 274.62C578.883 273.191 576.443 272.055 573.89 271.24C571.257 270.4 568.617 269.697 565.97 269.13C563.323 268.563 560.903 268.02 558.71 267.5C556.833 267.094 555.031 266.395 553.37 265.43C552.737 265.09 552.211 264.583 551.847 263.964C551.484 263.345 551.298 262.638 551.31 261.92C551.309 260.896 551.663 259.903 552.31 259.11C553.214 258.094 554.38 257.347 555.68 256.95C557.678 256.326 559.767 256.042 561.86 256.11C564.867 256.129 567.859 256.539 570.76 257.33C574.003 258.214 577.121 259.504 580.04 261.17L585.66 247.49C582.247 245.463 578.534 243.992 574.66 243.13C570.509 242.168 566.261 241.681 562 241.68C555.56 241.68 550.187 242.65 545.88 244.59C541.997 246.178 538.649 248.842 536.23 252.27C534.111 255.394 532.985 259.085 533 262.86C532.885 265.889 533.575 268.895 535 271.57C536.296 273.834 538.109 275.759 540.29 277.19C542.559 278.671 545.018 279.838 547.6 280.66C550.199 281.509 552.843 282.213 555.52 282.77C558.11 283.3 560.52 283.86 562.73 284.45C564.619 284.914 566.433 285.641 568.12 286.61C568.742 286.938 569.263 287.43 569.627 288.033C569.99 288.636 570.181 289.326 570.18 290.03C570.2 291.098 569.814 292.135 569.1 292.93C568.18 293.867 567.01 294.519 565.73 294.81C563.692 295.304 561.596 295.522 559.5 295.46C555.603 295.446 551.731 294.832 548.02 293.64C544.463 292.538 541.065 290.978 537.91 289L531.82 302.77C535.517 305.111 539.57 306.837 543.82 307.88C548.909 309.233 554.154 309.906 559.42 309.88C565.913 309.88 571.317 308.913 575.63 306.98C579.528 305.376 582.889 302.694 585.32 299.25C587.445 296.147 588.575 292.471 588.56 288.71C588.669 285.716 587.957 282.748 586.5 280.13C585.171 277.901 583.339 276.014 581.15 274.62Z" fill="#01E3A1"/>
<path d="M615.39 294.15V282.16H644.53V268.38H615.39V257.42H648.47V242.99H597.12V308.58H649.69V294.15H615.39Z" fill="#01E3A1"/>
<path d="M120.25 338.23H108V370.09H112.6V358.51H120.09C126.64 358.51 130.98 354.37 130.98 348.22C131 342.24 126.71 338.23 120.25 338.23ZM119.69 354.72H112.63V342H119.69C123.69 342 126.24 344.54 126.24 348.33C126.24 352.12 123.74 354.72 119.69 354.72Z" fill="white"/>
<path d="M147.8 346.67C144.31 346.67 141.6 348 139.97 350.37V336.51H135.58V370.09H140V356.4C140 352.83 142.54 350.46 146.37 350.46C150.2 350.46 152.74 352.83 152.74 356.4V370.09H157.13V355.62C157.1 350.24 153.35 346.67 147.8 346.67Z" fill="white"/>
<path d="M171.86 346.67C168.602 346.519 165.411 347.629 162.95 349.77L164.89 352.39C165.674 351.643 166.601 351.06 167.614 350.677C168.627 350.294 169.707 350.118 170.79 350.16C174.66 350.16 177.03 352.44 177.03 356.1V357.1C175.078 356.678 173.087 356.461 171.09 356.45C165.32 356.45 161.49 359.29 161.49 363.6C161.49 367.73 164.63 370.49 169.24 370.49C170.826 370.51 172.389 370.105 173.765 369.317C175.142 368.529 176.283 367.387 177.07 366.01L177.16 370.01H181.42V355.62C181.42 350.24 177.59 346.67 171.86 346.67ZM170.49 367.33C167.69 367.33 166.1 365.82 166.1 363.5C166.1 361.18 168.29 359.5 171.65 359.5C173.459 359.519 175.261 359.72 177.03 360.1C177 364.71 173.67 367.33 170.49 367.33Z" fill="white"/>
<path d="M192 350.54L191.92 347.1H187.7V370.1H192.09V357.22C192.09 353.3 195.28 350.72 200.48 350.72L200.79 346.67C196.74 346.67 193.69 348 192 350.54Z" fill="white"/>
<path d="M231 346.67C229.467 346.596 227.943 346.937 226.588 347.657C225.233 348.377 224.097 349.449 223.3 350.76C222.559 349.464 221.475 348.398 220.168 347.676C218.861 346.955 217.381 346.607 215.89 346.67C214.488 346.604 213.093 346.898 211.836 347.523C210.58 348.148 209.504 349.083 208.71 350.24L208.62 347.1H204.4V370.1H208.79V356.4C208.79 352.83 211.03 350.46 214.43 350.46C217.83 350.46 220.07 352.83 220.07 356.4V370.09H224.46V356.4C224.46 352.83 226.74 350.46 230.14 350.46C233.54 350.46 235.78 352.83 235.78 356.4V370.09H240.17V355.62C240.13 350.24 236.47 346.67 231 346.67Z" fill="white"/>
<path d="M254.94 346.67C251.682 346.519 248.491 347.629 246.03 349.77L247.97 352.39C248.753 351.643 249.677 351.061 250.689 350.678C251.701 350.295 252.779 350.119 253.86 350.16C257.74 350.16 260.11 352.44 260.11 356.1V357.1C258.138 356.675 256.127 356.457 254.11 356.45C248.35 356.45 244.52 359.29 244.52 363.6C244.52 367.73 247.66 370.49 252.26 370.49C253.847 370.509 255.411 370.104 256.79 369.317C258.168 368.529 259.311 367.387 260.1 366.01L260.18 370.01H264.45V355.62C264.5 350.24 260.66 346.67 254.94 346.67ZM253.56 367.33C250.76 367.33 249.17 365.82 249.17 363.5C249.17 361.18 251.37 359.5 254.72 359.5C256.532 359.519 258.338 359.72 260.11 360.1C260.06 364.71 256.75 367.33 253.56 367.33Z" fill="white"/>
<path d="M281.46 366.73C276.89 366.73 273.88 363.46 273.88 358.59C273.88 353.72 276.88 350.46 281.41 350.46C283.282 350.408 285.106 351.053 286.53 352.27L289.03 349.27C286.843 347.566 284.142 346.656 281.37 346.69C274.14 346.69 269.32 351.47 269.32 358.61C269.32 365.75 274.09 370.54 281.24 370.54C284.375 370.651 287.43 369.539 289.76 367.44L287.22 364.44C286.472 365.202 285.574 365.799 284.582 366.194C283.59 366.588 282.527 366.771 281.46 366.73Z" fill="white"/>
<path d="M303.11 346.67C296.39 346.67 291.96 351.49 291.96 358.67C291.96 365.85 296.52 370.51 303.28 370.51C305.217 370.571 307.138 370.146 308.867 369.272C310.597 368.399 312.08 367.105 313.18 365.51L309.82 363.7C309.067 364.741 308.078 365.588 306.934 366.172C305.79 366.756 304.524 367.06 303.24 367.06C299.24 367.06 297.04 364.39 296.61 360.22H314.12C314.196 359.59 314.226 358.955 314.21 358.32C314.21 351.32 309.78 346.67 303.11 346.67ZM296.61 357.17C296.99 352.83 299.32 350.17 303.11 350.17C306.9 350.17 309.3 352.79 309.69 357.17H296.61Z" fill="white"/>
<path d="M335.35 360.83C335.35 362.429 334.715 363.963 333.584 365.094C332.453 366.225 330.919 366.86 329.32 366.86C327.721 366.86 326.187 366.225 325.056 365.094C323.925 363.963 323.29 362.429 323.29 360.83V347.1H318.9V361.56C318.9 366.94 322.48 370.56 327.9 370.56C329.378 370.641 330.852 370.338 332.179 369.681C333.505 369.024 334.639 368.035 335.47 366.81L335.56 370.13H339.78V347.13H335.39L335.35 360.83Z" fill="white"/>
<path d="M352 362.85V350.72H359.57V347.1H352V340.38H347.61V347.1H343.7V350.72H347.62V363.72C347.62 367.72 350.28 370.48 354.24 370.48C356.186 370.55 358.125 370.209 359.93 369.48V366C358.556 366.531 357.093 366.796 355.62 366.78C355.114 366.793 354.611 366.698 354.146 366.5C353.68 366.303 353.261 366.008 352.918 365.636C352.576 365.264 352.316 364.823 352.158 364.342C352 363.862 351.946 363.353 352 362.85Z" fill="white"/>
<path d="M368.36 347.1H363.97V370.09H368.36V347.1Z" fill="white"/>
<path d="M366.17 336.81C365.622 336.8 365.084 336.953 364.623 337.251C364.163 337.548 363.801 337.975 363.585 338.479C363.368 338.982 363.306 339.539 363.407 340.077C363.508 340.616 363.767 341.112 364.151 341.503C364.535 341.894 365.026 342.162 365.563 342.273C366.1 342.383 366.657 342.332 367.164 342.124C367.672 341.917 368.106 341.563 368.411 341.108C368.717 340.654 368.88 340.118 368.88 339.57C368.892 339.209 368.831 338.848 368.7 338.511C368.568 338.174 368.37 337.867 368.117 337.609C367.863 337.351 367.56 337.147 367.225 337.01C366.891 336.872 366.532 336.804 366.17 336.81Z" fill="white"/>
<path d="M385.62 366.73C381.06 366.73 378.05 363.46 378.05 358.59C378.05 353.72 381.05 350.46 385.58 350.46C387.452 350.408 389.276 351.053 390.7 352.27L393.2 349.27C391.013 347.566 388.312 346.656 385.54 346.69C378.31 346.69 373.48 351.47 373.48 358.61C373.48 365.75 378.26 370.54 385.41 370.54C388.545 370.651 391.6 369.539 393.93 367.44L391.39 364.44C390.641 365.202 389.74 365.8 388.747 366.194C387.753 366.588 386.688 366.771 385.62 366.73Z" fill="white"/>
<path d="M406.71 346.67C403.452 346.521 400.262 347.631 397.8 349.77L399.74 352.39C400.524 351.643 401.451 351.06 402.464 350.677C403.477 350.294 404.557 350.118 405.64 350.16C409.51 350.16 411.88 352.44 411.88 356.1V357.1C409.928 356.678 407.937 356.461 405.94 356.45C400.17 356.45 396.34 359.29 396.34 363.6C396.34 367.73 399.48 370.49 404.09 370.49C405.676 370.51 407.239 370.105 408.615 369.317C409.992 368.529 411.133 367.387 411.92 366.01L412.01 370.01H416.27V355.62C416.27 350.24 412.44 346.67 406.71 346.67ZM405.34 367.33C402.54 367.33 400.95 365.82 400.95 363.5C400.95 361.18 403.14 359.5 406.5 359.5C408.309 359.519 410.111 359.72 411.88 360.1C411.84 364.71 408.52 367.33 405.34 367.33Z" fill="white"/>
<path d="M426.99 336.51H422.6V370.09H426.99V336.51Z" fill="white"/>
<path d="M443 356.91L440.8 356.31C438.57 355.67 436.93 354.85 436.93 353.13C436.93 351.41 438.69 350.13 441.28 350.13C443.394 350.093 445.475 350.658 447.28 351.76L449.18 348.83C446.722 347.291 443.858 346.528 440.96 346.64C435.83 346.64 432.39 349.48 432.39 353.74C432.39 357.31 434.97 358.74 438.72 359.74L440.91 360.34C443.45 361.07 445.3 362.06 445.3 363.87C445.3 365.68 443.49 367.01 440.78 367.01C438.441 367.074 436.135 366.448 434.15 365.21L432.41 368C434.35 369.68 437.32 370.54 440.72 370.54C446.23 370.54 449.8 367.78 449.8 363.61C449.8 359.71 446.66 357.9 443 356.91Z" fill="white"/>
<path d="M479.07 338.23H466.85V370.09H471.45V358.51H478.94C485.49 358.51 489.83 354.37 489.83 348.22C489.83 342.24 485.53 338.23 479.07 338.23ZM478.51 354.72H471.45V342H478.51C482.51 342 485.06 344.54 485.06 348.33C485.06 352.12 482.56 354.72 478.51 354.72Z" fill="white"/>
<path d="M499.82 338.23H495.21V370.09H514.37V366.3H499.82V338.23Z" fill="white"/>
<path d="M542.09 361.39C541.024 363.065 539.543 364.437 537.791 365.373C536.039 366.308 534.075 366.776 532.09 366.73C525.09 366.73 520.34 361.65 520.34 354.07C520.34 346.49 525.03 341.59 532.13 341.59C533.899 341.557 535.652 341.927 537.256 342.672C538.861 343.417 540.274 344.517 541.39 345.89L544.27 342.97C542.724 341.268 540.825 339.923 538.706 339.03C536.587 338.137 534.298 337.718 532 337.8C522.15 337.8 515.56 344.3 515.56 354.07C515.56 363.84 522.19 370.52 532.05 370.52C534.594 370.604 537.122 370.077 539.42 368.982C541.719 367.888 543.721 366.258 545.26 364.23L542.09 361.39Z" fill="white"/>
<path d="M407.52 145.45C408.943 144.002 409.975 142.216 410.52 140.26C409.55 142 408.56 143.74 407.52 145.45Z" fill="white"/>
<path d="M398.36 30.0699H397.55C385.55 30.4799 375.92 39.9199 375.82 51.5399C375.815 51.6032 375.815 51.6667 375.82 51.7299L376 114.73V137.31C376.079 143.014 378.371 148.464 382.391 152.51C386.412 156.557 391.847 158.884 397.55 159H398.27C404.11 159.059 409.736 156.799 413.913 152.716C418.089 148.633 420.476 143.06 420.55 137.22V114.73V109.8L420.73 80.4599L420.9 51.7399C420.93 39.7699 410.83 30.0699 398.36 30.0699ZM410.88 137.22C410.878 138.233 410.744 139.242 410.48 140.22C409.935 142.176 408.903 143.962 407.48 145.41C406.279 146.647 404.841 147.629 403.251 148.298C401.662 148.966 399.954 149.307 398.23 149.3C394.952 149.359 391.785 148.117 389.421 145.845C387.058 143.573 385.691 140.457 385.62 137.18V94.5299H410.84L410.88 137.22Z" fill="white"/>
<path d="M363.24 153.39C351.611 161.242 337.892 165.423 323.86 165.39C305.075 165.39 287.059 157.928 273.776 144.644C260.492 131.361 253.03 113.345 253.03 94.56C253.03 75.7747 260.492 57.7588 273.776 44.4756C287.059 31.1924 305.075 23.73 323.86 23.73C337.828 23.684 351.491 27.8179 363.09 35.6C366.694 28.2147 372.539 22.1565 379.79 18.29C361.572 4.93829 339.177 -1.45348 316.656 0.270596C294.135 1.99467 272.974 11.7208 257 27.69C243.783 40.9135 234.783 57.7586 231.138 76.096C227.493 94.4333 229.366 113.44 236.521 130.713C243.676 147.986 255.791 162.75 271.335 173.139C286.879 183.528 305.154 189.075 323.85 189.08C344.005 189.189 363.653 182.765 379.85 170.77C372.615 166.878 366.8 160.793 363.24 153.39Z" fill="white"/>
<path d="M379.82 170.77C361.601 184.133 339.2 190.533 316.672 188.81C294.143 187.088 272.976 177.357 257 161.38C243.781 148.157 234.78 131.312 231.134 112.973C227.489 94.6353 229.363 75.6278 236.519 58.3545C243.675 41.0812 255.793 26.3177 271.339 15.9308C286.886 5.54387 305.163 -6.03352e-05 323.86 -1.06414e-05C343.989 -0.102548 363.611 6.314 379.79 18.29C372.539 22.1564 366.694 28.2146 363.09 35.6C351.493 27.8108 337.83 23.6699 323.86 23.71C305.075 23.71 287.059 31.1724 273.776 44.4556C260.492 57.7388 253.03 75.7547 253.03 94.54C253.03 113.325 260.492 131.341 273.776 144.624C287.059 157.908 305.075 165.37 323.86 165.37C337.892 165.403 351.611 161.222 363.24 153.37C366.789 160.776 372.594 166.868 379.82 170.77Z" fill="white"/>
</g>
<defs>
<clipPath id="clip0_69_413">
<rect width="649.69" height="370.52" fill="white"/>
</clipPath>
</defs>
</svg>
